<?xml version="1.0" encoding="UTF-8" standalone="no"?>
<svg
   version="1.1"
   id="Contours"
   x="0px"
   y="0px"
   width="1984.1322"
   height="695.85529"
   viewBox="-1e-06 2e-06 1984.1322 244.04351"
   enable-background="new 0 0 1984.132202 1984.132202"
   xml:space="preserve"
   stroke="#000000"
   fill="none"
   stroke-linecap="round"
   stroke-linejoin="round"
   sodipodi:docname="delight.svg"
   inkscape:version="1.4 (e7c3feb1, 2024-10-09)"
   xmlns:inkscape="http://www.inkscape.org/namespaces/inkscape"
   xmlns:sodipodi="http://sodipodi.sourceforge.net/DTD/sodipodi-0.dtd"
   xmlns="http://www.w3.org/2000/svg"
   xmlns:svg="http://www.w3.org/2000/svg"><defs
     id="defs4" /><sodipodi:namedview
     id="namedview4"
     pagecolor="#ffffff"
     bordercolor="#000000"
     borderopacity="0.25"
     inkscape:showpageshadow="2"
     inkscape:pageopacity="0.0"
     inkscape:pagecheckerboard="0"
     inkscape:deskcolor="#d1d1d1"
     inkscape:zoom="0.31651117"
     inkscape:cx="993.64582"
     inkscape:cy="347.53908"
     inkscape:window-width="1440"
     inkscape:window-height="847"
     inkscape:window-x="0"
     inkscape:window-y="25"
     inkscape:window-maximized="1"
     inkscape:current-layer="Contours" /><path
     class="selected"
     fill="#000000"
     opacity="1"
     stroke="none"
     d="m 799.37998,-43.583838 c 1.22955,-0.33298 2.55479,1.03715 2.18105,2.25493 -1.386,-0.0215 -2.60841,-1.35794 -2.50651,-2.74036 z"
     id="path1" /><path
     class="selected"
     fill="#000000"
     opacity="1"
     stroke="none"
     d="m 1003.3947,41.004352 c -2.17,0.004 -4.34009,0.008 -6.51016,0.0126 1.00852,-1.34 2.16907,-2.77818 3.81726,-3.08819 1.6482,-0.31002 3.6059,1.3766 2.8578,2.87762 z"
     id="path2" /><path
     class="selected"
     fill="#000000"
     opacity="1"
     stroke="none"
     d="m 804.15716,-42.845398 c 6.44541,-0.70501 12.89082,-1.41003 19.33623,-2.11504 -1.55576,-1.38579 -3.82897,-1.50862 -5.9118,-1.55992 -13.64476,-0.33607 -27.28952,-0.67214 -40.93428,-1.00821 -1.16344,-0.0286 -2.39947,-0.039 -3.39479,0.56408 -0.99532,0.60312 -1.56044,2.06325 -0.82663,2.96654 6.02708,-0.31676 12.16651,-0.62301 18.00882,0.89138 -9.40547,3.04977 -19.97939,2.31774 -28.87489,-1.99898 -2.37872,-1.15432 -4.74427,-2.58293 -7.38428,-2.7284 -2.64,-0.14547 -5.63082,1.60049 -5.70027,4.24359 -0.0209,0.79543 0.21924,1.61083 -0.002,2.37505 -0.22166,0.76421 -1.25739,1.35454 -1.80926,0.78132 -2.82933,-1.57366 -4.54108,-4.94997 -4.13819,-8.16231 0.40289,-3.21235 2.8954,-6.06137 6.02571,-6.88758 3.76607,-0.99402 7.63267,0.76327 11.44824,1.54609 3.37442,0.69231 6.85291,0.61787 10.29674,0.54049 14.74341,-0.33128 29.48683,-0.66255 44.23024,-0.99382 3.31164,-0.0744 6.78258,-0.11412 9.72803,1.4014 2.94545,1.51552 5.09148,5.13723 3.80943,8.19155 -0.54809,1.30574 -1.62477,2.31858 -2.77573,3.1436 -6.19823,4.443 -15.4711,3.92043 -21.1309,-1.19083 z"
     id="path3" /><path
     class="selected"
     fill="#000000"
     opacity="1"
     stroke="none"
     d="m 1558.8067,206.28217 c -38.7046,20.89167 -74.1067,47.88703 -104.4968,79.68257 -19.7582,20.67191 -38.2557,43.99871 -64.1957,56.03319 -25.94,12.03448 -62.4463,7.75063 -75.5824,-17.64928 -10.3566,-20.02535 -2.7026,-44.23173 5.0812,-65.39031 24.4466,-66.45307 48.8931,-132.90614 73.3397,-199.359198 -81.2157,39.18646 -142.9825,116.546438 -163.2173,204.422008 -24.8437,5.2158 -49.0161,-17.34599 -53.6042,-42.31321 -4.5881,-24.96721 5.4801,-50.3263 18.2784,-72.24919 -56.6513,-7.59184 -116.1741,28.52575 -135.601,82.28075 -18.2571,50.51806 -36.5142,101.03612 -54.7713,151.55418 -14.32664,39.64238 -37.35993,86.15968 -79.44408,88.54639 -28.887,1.63826 -55.23058,-21.17069 -64.63637,-48.53259 -9.40579,-27.3619 -4.69987,-57.78023 5.29774,-84.93148 13.43191,-36.478 36.29784,-69.43698 65.76335,-94.79135 19.92331,-17.14353 42.83346,-30.91721 60.68943,-50.20461 17.85593,-19.28739 30.33303,-46.50867 23.08313,-71.77283 -20.52579,20.67474 -42.34692,42.13544 -70.36675,50.11322 -28.01983,7.97778 -63.76222,-3.14539 -72.74052,-30.86084 -6.14546,-18.97063 -35.16896,-18.18051 -50.20345,-5.0803 -15.0345,13.10022 -22.47588,33.00762 -36.46674,47.21704 -34.71754,35.25988 -106.2961,13.94347 -116.06699,-34.56525 -42.154,52.78945 -84.308,105.57891 -126.46201,158.36836 -49.09783,-46.17545 -62.43776,-126.0385 -31.0124,-185.66413 -32.734,4.49711 -59.36837,27.83139 -89.79462,40.71481 -30.42624,12.88342 -74.41222,9.57963 -85.80585,-21.43527 -5.69504,-15.50262 -28.9914,-10.0517 -42.8415,-1.05505 -31.08687,20.19317 -59.57986,44.37473 -84.55934,71.7642 -18.19498,19.95041 -54.7103,9.67625 -68.17995,-13.72557 -13.46965,-23.40181 -9.40228,-53.01296 -0.34677,-78.45061 9.05552,-25.437648 22.68885,-49.426358 27.80506,-75.938628 C 125.01607,68.407032 86.905579,101.55489 55.829619,140.35452 27.386796,133.80854 7.3236958,105.70298 3.8322988,76.726202 0.34090178,47.749412 10.830521,18.613762 26.179705,-6.2105483 45.952979,-38.189968 77.070344,-66.347388 114.53327,-69.540348 c 37.46292,-3.19296 78.00326,28.11743 73.71719,65.4710797 30.32064,-57.7650997 60.64129,-115.5301917 90.96194,-173.2952717 14.31624,-27.27447 44.43403,-59.10688 69.71518,-41.50817 22.97122,15.99073 9.6515,51.67246 -4.9534,75.54875 -68.58302,112.120442 -121.81013,233.619912 -157.732,360.04872 36.75622,-36.66449 77.83703,-68.98986 122.11808,-96.09139 -21.67069,-30.706418 -7.11367,-73.819228 14.24619,-104.742668 14.93133,-21.6166203 33.94136,-41.84848 58.71568,-50.59239 24.77432,-8.7439 56.11283,-2.88563 70.65809,18.99263 15.38104,23.1353797 7.00035,55.90739 -11.71106,76.44285 -18.71142,20.53547 -45.29833,31.70628 -70.99442,42.267178 -18.90975,7.77177 -15.19376,39.09559 2.53579,49.27606 17.72954,10.18047 40.27193,4.85745 58.89417,-3.58003 56.96409,-25.80965 98.94612,-76.882658 128.81514,-131.827058 29.86903,-54.9444 49.51014,-114.76683 75.02318,-171.864382 6.18222,-13.83565 13.92862,-28.70231 28.01951,-34.27831 24.15713,-9.55937 50.1298,16.63714 51.16371,42.59633 1.0339,25.95919 -13.84569,49.504672 -27.41488,71.659252 C 618.85527,35.119182 570.73368,157.06094 544.79804,283.5824 611.04517,217.43668 664.6404,138.66418 701.84566,52.758952 c 7.86009,-18.14858 15.25602,-37.03061 28.53509,-51.6873003 13.27907,-14.6566797 34.19736,-24.3381197 53.04986,-18.3601897 18.85249,5.97793 30.26398,31.87672 17.63958,47.10092 C 760.85094,78.314142 738.63256,141.40914 739.58712,204.40991 796.13165,150.61975 848.4884,92.428472 896.02769,30.535962 c 39.78439,-51.79624 129.57261,-52.37629 170.02291,-1.09839 6.0548,-28.54534028 22.9515,-64.83217 51.567,-59.11837 16.4683,3.28829 26.7704,21.0699897 27.2409,37.8567397 0.4705,16.7867503 -6.5236,32.7748503 -13.3796,48.1049603 -14.6185,32.68756 -29.2371,65.375118 -43.8557,98.062678 51.5956,-9.35642 111.4654,-25.15728 130.8257,-73.889518 23.9187,-60.20599 47.8373,-120.41198 71.756,-180.617982 9.7252,-24.47957 27.0467,-53.6991 53.1253,-49.99276 17.9857,2.55616 29.9242,21.53763 30.8282,39.68148 0.904,18.143862 -6.4852,35.553982 -13.7292,52.213552 -24.2581,55.7880097 -48.5161,111.57602 -72.7742,167.364038 24.0761,-18.974178 48.1521,-37.948358 72.2282,-56.922538 17.6977,-13.94748 39.0406,-28.74409 60.8518,-23.08592 19.5855,5.08082 31.7626,25.90722 33.3008,46.08254 1.5382,20.17533 -5.2591,39.950018 -11.9598,59.042168 -24.3503,69.38103 -48.7007,138.76206 -73.051,208.1431 45.7564,-44.35622 93.7471,-86.40731 143.7295,-125.94053 65.2776,-51.6308 93.4728,-135.935148 118.3983,-215.3430783 -74.5145,-9.60637 -149.4682,-15.8050697 -224.5484,-18.5702297 -6.8153,-5.02425 5.4748,-13.05684 13.9194,-12.44094 72.6718,5.30024 145.3435,10.60048 218.0153,15.90073 11.5623,-28.56365 23.1245,-57.12729 34.6868,-85.69093 4.065,-10.042332 8.6273,-20.706422 17.7065,-26.617482 22.2403,-14.47961 51.7076,12.34555 52.8265,38.860342 1.1188,26.51479 -13.7596,50.6843 -21.7893,75.97876 81.2954,-0.73605 162.638,3.7842997 243.3513,13.5234697 11.8795,1.43341 27.7468,12.0581403 19.854,21.0514703 C 1895.8496,10.877202 1805.6658,4.9730217 1715.5129,5.4189917 1646.9794,144.00606 1597.3478,291.92494 1568.4213,443.80145 c 43.8296,-30.97579 74.4402,-80.05306 82.9798,-133.03994 10.2438,-63.56056 54.1331,-117.72946 106.8517,-154.68393 52.7186,-36.95447 114.1227,-59.132898 174.7136,-80.895748 -45.4284,57.189548 -108.8691,96.837738 -162.3097,146.622138 -75.4034,70.24456 -129.8168,159.58153 -183.2483,247.70103 -45.9647,-18.49966 -70.0164,-71.83686 -69.3794,-121.38062 0.6371,-49.54376 20.8817,-96.46447 40.7777,-141.84221 M 937.35983,369.47049 c 14.29308,-49.49636 31.15072,-98.25203 50.48271,-146.00613 -16.73419,6.39089 -32.17107,16.15777 -45.1128,28.54278 -8.34617,7.98714 -15.62617,17.00724 -22.81736,26.04825 -16.81322,21.13815 -33.50075,42.92156 -43.42348,68.04218 -9.92272,25.12062 -12.39369,54.3815 -0.73459,78.74483 1.02376,2.1393 2.28968,4.36792 4.43702,5.37473 1.89901,0.89037 4.11899,0.6449 6.18144,0.26372 13.08267,-2.41791 25.20397,-9.71968 33.45736,-20.15444 9.25568,-11.70194 13.39041,-26.52172 17.5297,-40.85592 M 1046.1729,38.641182 c -5.0443,-5.53498 -13.5339,-6.14147 -20.9578,-5.15784 -7.4239,0.98363 -14.9197,3.16148 -22.2755,1.75666 -3.60767,-0.68899 -7.00518,1.714 -9.89396,3.98225 -5.32186,4.17868 -10.64372,8.35737 -15.96558,12.53605 -16.63026,13.05797 -33.46353,26.32086 -46.15419,43.23308 -12.69066,16.912228 -20.96947,38.190168 -18.00926,59.126098 0.55268,3.90883 1.58614,7.95357 4.27727,10.84186 2.69113,2.8883 7.46304,4.15388 10.68132,1.8676 39.63606,-28.15764 79.7281,-56.72974 111.0934,-93.879328 4.1341,-4.89652 8.1876,-10.08052 10.1297,-16.18746 1.9422,-6.10695 1.3912,-13.38253 -2.9254,-18.11897 M 75.588619,53.070072 c -11.162998,20.05569 -17.48313,42.78517 -18.275294,65.724558 -0.02856,0.82707 -0.0321,1.71817 0.440631,2.39742 1.238884,1.78011 4.012358,0.48601 5.662287,-0.9216 19.767605,-16.86449 37.995787,-35.532678 54.384057,-55.696838 17.50655,-21.54009 51.64635,-26.31166 64.8032,-50.75245 1.54829,-2.87618 2.71047,-6.4970503 1.02442,-9.2947003 -4.28972,-7.11786 -8.67852,-14.35616 -14.91696,-19.8468197 -6.23845,-5.49066 -14.73494,-9.05709 -22.8826,-7.41965 -6.92223,1.39117 -12.58328,6.22533 -17.73545,11.05313 -14.36417,13.4598297 -27.46886,28.26319 -39.08718,44.15378 -4.840254,6.6201 -9.428711,13.43752 -13.417111,20.60317 m 317.276301,24.42931 c 6.8581,-4.7909 12.89738,-10.6561 19.57874,-15.69054 6.06576,-4.57058 12.77067,-8.56115 17.38848,-14.59102 6.46077,-8.4364 8.81219,-20.70825 18.26556,-25.56091 4.39266,-2.25486 5.20747,-8.8397 2.30654,-12.8352603 -2.90092,-3.99556 -8.36468,-5.48241 -13.25507,-4.80122 -4.89038,0.68118 -9.32625,3.18038 -13.4664,5.87093 -27.54025,17.8974703 -47.6787,46.8359303 -54.89229,78.8788603 8.59146,-2.34031 16.7747,-6.17143 24.07444,-11.27084 M 909.51351,282.98464 c -0.79931,1.16659 -1.59862,2.33318 -2.39794,3.49977 -0.24376,1.24226 1.95324,0.88229 2.72321,-0.12259 1.85763,-2.42439 3.02803,-5.36953 3.34122,-8.40768 -2.09286,0.60656 -3.62962,2.75213 -3.53027,4.92885 m -23.13027,30.23616 c -2.61589,1.47974 -3.76715,5.09214 -2.48986,7.81263 2.67897,-1.64982 3.98994,-5.22898 3.01039,-8.21884 m 657.16761,96.15695 c -0.3783,2.16143 1.0815,4.48957 3.1919,5.09058 1.2068,-2.10048 -0.5714,-5.20432 -2.9938,-5.22568 M 996.26209,127.80108 c -0.84488,1.3301 1.73106,2.91804 2.5398,1.56566 0.62306,-1.00196 -1.23203,-1.62397 -2.38362,-1.36711 m -173.52866,7.41949 c 1.00136,-0.40744 0.5865,-2.2796 -0.49324,-2.22588 -1.40112,-0.0948 -0.76627,2.80317 0.46689,2.13126 z"
     id="path4" /></svg>
